<?xml version="1.0" standalone="no"?>
<!DOCTYPE svg PUBLIC "-//W3C//DTD SVG 1.1//EN" "http://www.w3.org/Graphics/SVG/1.1/DTD/svg11.dtd" >
<svg xmlns="http://www.w3.org/2000/svg" xmlns:xlink="http://www.w3.org/1999/xlink" version="1.1">
<metadata></metadata>
<defs>
<font id="just_sansregular" horiz-adv-x="1484" >
<font-face units-per-em="2048" ascent="1638" descent="-410" />
<missing-glyph horiz-adv-x="501" />
<glyph unicode="&#xfb02;" horiz-adv-x="1294" d="M61 891v153h205v105q0 141 83.5 223t221.5 82q139 0 242 -70l-59 -127q-72 43 -154 43q-64 0 -106.5 -40.5t-42.5 -122.5v-93h297v-153h-297v-891h-185v891h-205zM967 0v1434h184v-1434h-184z" />
<glyph horiz-adv-x="0" />
<glyph horiz-adv-x="682" />
<glyph unicode=" "  horiz-adv-x="501" />
<glyph unicode="&#x09;" horiz-adv-x="501" />
<glyph unicode="&#xa0;" horiz-adv-x="501" />
<glyph unicode="!" horiz-adv-x="583" d="M154 113q0 58 40.5 95.5t98.5 37.5t97.5 -37.5t39.5 -95.5t-39.5 -95.5t-97.5 -37.5t-98.5 37.5t-40.5 95.5zM190 1434h205l-20 -1014h-164z" />
<glyph unicode="&#x22;" horiz-adv-x="548" d="M51 1454h180l-16 -461h-147zM317 1454h181l-17 -461h-147z" />
<glyph unicode="#" d="M92 408l35 139h279l81 340h-278l35 139h278l101 408h153l-100 -408h285l100 408h153l-100 -408h279l-35 -139h-279l-82 -340h279l-35 -139h-278l-101 -408h-153l100 408h-285l-100 -408h-154l101 408h-279zM559 547h285l82 340h-285z" />
<glyph unicode="$" horiz-adv-x="1249" d="M102 319l166 60q45 -122 152.5 -183t238.5 -61q153 0 234.5 65t81.5 169q0 58 -29 101.5t-77.5 71t-111.5 49.5t-133 41.5t-140 42t-133 56t-111.5 78t-77.5 114t-29 158.5q0 153 110 252.5t300 116.5v199h184v-203q143 -21 246.5 -100t152.5 -211l-165 -60 q-42 114 -134.5 168.5t-208.5 54.5q-143 0 -223 -61.5t-80 -155.5q0 -57 29 -99.5t77.5 -69.5t111.5 -48.5t133 -41.5t140 -42t133 -56.5t111.5 -79.5t77.5 -115t29 -160q0 -164 -115.5 -268t-314.5 -119v-197h-184v203q-157 24 -273 107.5t-168 223.5z" />
<glyph unicode="%" horiz-adv-x="1732" d="M51 1085q0 157 100 263t259 106q158 0 258 -106t100 -263t-99.5 -262.5t-258.5 -105.5t-259 106t-100 262zM215 1085q0 -92 55 -153.5t140 -61.5t139.5 61.5t54.5 153.5t-54.5 153.5t-139.5 61.5t-140 -61.5t-55 -153.5zM266 74l1080 1380l120 -94l-1079 -1380zM965 348 q0 157 100 263t258 106t258 -106t100 -263t-99.5 -262.5t-258.5 -105.5t-258.5 105.5t-99.5 262.5zM1128 348q0 -92 55 -153.5t140 -61.5t140 61.5t55 153.5t-55 153.5t-140 61.5t-140 -61.5t-55 -153.5z" />
<glyph unicode="&#x26;" horiz-adv-x="1464" d="M154 330q0 74 22 139.5t65 120t86 95t105 87.5q-162 203 -162 367q0 139 93 227t249 88q151 0 241.5 -84.5t90.5 -220.5q0 -62 -21.5 -117.5t-65.5 -107t-84 -87.5t-105 -87l307 -340l43 65l164 254l139 -88l-172 -260q-11 -18 -33.5 -49.5t-30.5 -44.5l54 -60 q35 -38 66 -55.5t81 -17.5h76v-154h-105q-138 0 -235 111l-45 49q-175 -180 -426 -180q-178 0 -287.5 95t-109.5 255zM338 342q0 -95 61 -152t158 -57q174 0 313 146l-331 370q-96 -76 -148.5 -148.5t-52.5 -158.5zM444 1133q0 -115 121 -265q100 73 152.5 136.5t52.5 142.5 q0 68 -46.5 110.5t-113.5 42.5q-76 0 -121 -46.5t-45 -120.5z" />
<glyph unicode="'" horiz-adv-x="282" d="M51 1454h180l-16 -461h-147z" />
<glyph unicode="(" horiz-adv-x="614" d="M72 543q0 558 379 952l102 -57q-307 -402 -307 -895t307 -895l-102 -58q-379 394 -379 953z" />
<glyph unicode=")" horiz-adv-x="614" d="M61 -352q308 403 308 895t-308 895l103 57q379 -394 379 -952q0 -559 -379 -953z" />
<glyph unicode="*" horiz-adv-x="833" d="M92 1151l41 127l238 -102l-23 258h135l-22 -260l239 104l41 -127l-258 -59l174 -193l-108 -80l-133 223l-131 -223l-111 80l174 193z" />
<glyph unicode="+" horiz-adv-x="1034" d="M72 528v174h362v363h168v-363h361v-174h-361v-364h-168v364h-362z" />
<glyph unicode="," horiz-adv-x="442" d="M20 -231l150 467l201 -66l-209 -446z" />
<glyph unicode="-" horiz-adv-x="839" d="M82 492v163h676v-163h-676z" />
<glyph unicode="." horiz-adv-x="440" d="M82 113q0 58 40.5 95.5t98.5 37.5t97.5 -37.5t39.5 -95.5t-39.5 -95.5t-97.5 -37.5t-98.5 37.5t-40.5 95.5z" />
<glyph unicode="/" horiz-adv-x="827" d="M0 -410l643 1905h184l-645 -1905h-182z" />
<glyph unicode="0" horiz-adv-x="1382" d="M102 717q0 217 75 385t209.5 260t305.5 92q172 0 305.5 -91.5t208 -259.5t74.5 -386t-74.5 -386t-208 -259.5t-305.5 -91.5q-171 0 -305.5 92t-209.5 260t-75 385zM287 717q0 -266 109.5 -418t295.5 -152t295 151.5t109 418.5q0 266 -109 417.5t-295 151.5t-295.5 -151.5 t-109.5 -417.5z" />
<glyph unicode="1" horiz-adv-x="751" d="M72 1016v205l379 213h133v-1434h-185v1202h-10z" />
<glyph unicode="2" horiz-adv-x="1177" d="M72 1100q55 167 193 260.5t323 93.5q207 0 342 -114t135 -308q0 -66 -19 -128t-49.5 -115.5t-87.5 -118t-114.5 -119.5t-149.5 -137l-260 -230v-10h690v-174h-973v154l424 378q72 65 106.5 96.5t85 81.5t73 81.5t47.5 74t34 82t9 84.5q0 119 -84.5 188.5t-208.5 69.5 q-118 0 -210.5 -65t-139.5 -185z" />
<glyph unicode="3" horiz-adv-x="1177" d="M61 319l172 62q38 -110 134.5 -174t224.5 -64q141 0 225 76.5t84 204.5q0 132 -85 207.5t-236 75.5h-211v122l413 431v10h-673v164h925v-154l-405 -420q206 -5 331 -125t125 -315q0 -199 -134 -319.5t-357 -120.5q-195 0 -338 90.5t-195 248.5z" />
<glyph unicode="4" horiz-adv-x="1218" d="M72 297v195l686 942h205v-963h204v-174h-204v-297h-185v297h-706zM260 471h518v713z" />
<glyph unicode="5" horiz-adv-x="1218" d="M82 305l172 60q42 -107 140.5 -164.5t226.5 -57.5q147 0 239 87.5t92 226.5q0 141 -90 226t-233 85q-189 0 -336 -127l-154 27l51 766h824v-164h-662l-30 -432h12q131 94 309 94q219 0 356.5 -129.5t137.5 -345.5q0 -211 -142.5 -344t-376.5 -133q-195 0 -339 85.5 t-197 239.5z" />
<glyph unicode="6" horiz-adv-x="1198" d="M72 471q0 106 37.5 197.5t121.5 210.5l398 555h225v-15l-352 -473q58 10 106 10q147 0 264.5 -60t185.5 -171t68 -254q0 -217 -149 -354t-379 -137t-378 137t-148 354zM256 471q0 -145 95.5 -236.5t246.5 -91.5q150 0 247 92t97 236t-97 236t-247 92q-151 0 -246.5 -91.5 t-95.5 -236.5z" />
<glyph unicode="7" horiz-adv-x="1095" d="M72 1260v174h952v-164l-600 -1270h-209l594 1249v11h-737z" />
<glyph unicode="8" horiz-adv-x="1208" d="M92 391q0 121 67 218t181 141q-96 49 -151.5 130.5t-55.5 186.5q0 171 130.5 279t340.5 108t340.5 -108t130.5 -279q0 -105 -55.5 -186.5t-151.5 -130.5q114 -44 181 -141t67 -218q0 -182 -146 -296.5t-366 -114.5t-366 114.5t-146 296.5zM276 408q0 -122 90 -193.5 t238 -71.5q149 0 238.5 71.5t89.5 193.5q0 120 -90 191t-238 71q-147 0 -237.5 -71.5t-90.5 -190.5zM317 1055q0 -103 80.5 -167.5t206.5 -64.5t206.5 64.5t80.5 167.5q0 106 -80.5 170.5t-206.5 64.5t-206.5 -64.5t-80.5 -170.5z" />
<glyph unicode="9" horiz-adv-x="1198" d="M72 963q0 217 149 354t379 137t378 -137t148 -354q0 -106 -37.5 -197.5t-121.5 -210.5l-398 -555h-225v14l352 473q-58 -10 -106 -10q-224 0 -371 135t-147 351zM256 963q0 -144 97 -236t247 -92q151 0 246.5 91.5t95.5 236.5t-95.5 236t-246.5 91q-150 0 -247 -91.5 t-97 -235.5z" />
<glyph unicode=":" horiz-adv-x="440" d="M82 113q0 58 40.5 95.5t98.5 37.5t97.5 -37.5t39.5 -95.5t-39.5 -95.5t-97.5 -37.5t-98.5 37.5t-40.5 95.5zM82 932q0 58 40.5 95.5t98.5 37.5t97.5 -37.5t39.5 -95.5t-39.5 -95.5t-97.5 -37.5t-98.5 37.5t-40.5 95.5z" />
<glyph unicode=";" horiz-adv-x="442" d="M20 -231l150 467l201 -66l-209 -446zM86 932q0 58 40.5 95.5t98.5 37.5t97.5 -37.5t39.5 -95.5t-39.5 -95.5t-97.5 -37.5t-98.5 37.5t-40.5 95.5z" />
<glyph unicode="&#x3c;" horiz-adv-x="1034" d="M72 535v159l891 350v-176l-674 -254l674 -252v-178z" />
<glyph unicode="=" horiz-adv-x="1034" d="M72 317v175h891v-175h-891zM72 737v174h891v-174h-891z" />
<glyph unicode="&#x3e;" horiz-adv-x="1034" d="M72 184v178l673 252l-673 254v176l891 -350v-159z" />
<glyph unicode="?" horiz-adv-x="1122" d="M51 1106q47 165 181.5 256.5t326.5 91.5q208 0 339.5 -105.5t131.5 -277.5q0 -70 -21 -130t-54.5 -102.5t-73.5 -80t-80.5 -72t-74 -69.5t-54.5 -80t-21 -97v-20h-172v20q0 66 20 123.5t52.5 99.5t71.5 80.5t78.5 74t72 72t52.5 83t20 98.5q0 103 -81.5 164t-203.5 61 q-259 0 -342 -249zM426 113q0 58 40.5 95.5t98.5 37.5t97.5 -37.5t39.5 -95.5t-39.5 -95.5t-97.5 -37.5t-98.5 37.5t-40.5 95.5z" />
<glyph unicode="@" horiz-adv-x="1812" d="M102 512q0 229 103.5 420.5t286.5 303.5t405 112q175 0 327.5 -62t258.5 -168.5t166.5 -253t60.5 -311.5q0 -200 -79.5 -319t-215.5 -119q-86 0 -148 40.5t-93 116.5h-11q-54 -87 -126.5 -122t-166.5 -35q-153 0 -254.5 110.5t-101.5 286.5t101.5 287.5t254.5 111.5 q170 0 263 -118h8l12 104h133v-446q0 -203 129 -203q72 0 112 83t40 222q0 138 -49.5 259.5t-137 210t-213 140t-270.5 51.5q-182 0 -332 -94t-234.5 -255t-84.5 -353q0 -189 81.5 -349t231.5 -256.5t338 -96.5h219v-134h-219q-136 0 -260 42.5t-220.5 119.5t-167.5 180.5 t-109 230t-38 263.5zM668 512q0 -120 64 -192t169 -72q102 0 167 72.5t65 191.5t-65 192.5t-167 73.5q-104 0 -168.5 -73t-64.5 -193z" />
<glyph unicode="A" horiz-adv-x="1353" d="M35 0l514 1434h254l516 -1434h-197l-114 328h-670l-115 -328h-188zM391 481h563l-276 793h-10z" />
<glyph unicode="B" horiz-adv-x="1329" d="M158 0v1434h551q209 0 330.5 -94.5t121.5 -284.5q0 -120 -51 -200.5t-137 -115.5v-10q250 -80 250 -344q0 -183 -118.5 -284t-346.5 -101h-600zM342 160h406q140 0 215 62.5t75 180.5t-75 182t-215 64h-406v-489zM342 805h360q134 0 204.5 60t70.5 173t-70.5 174.5 t-204.5 61.5h-360v-469z" />
<glyph unicode="C" horiz-adv-x="1415" d="M102 717q0 217 81.5 385t227.5 260t332 92q201 0 352.5 -104t217.5 -314l-174 -63q-109 317 -396 317q-207 0 -331.5 -153.5t-124.5 -419.5t124.5 -420t331.5 -154q293 0 406 318l174 -64q-69 -212 -221.5 -314.5t-358.5 -102.5q-186 0 -332 92t-227.5 260t-81.5 385z " />
<glyph unicode="D" horiz-adv-x="1396" d="M158 0v1434h458q202 0 356 -89t238 -252t84 -376t-84 -376t-238 -252t-356 -89h-458zM342 164h274q226 0 360 148.5t134 404.5t-134 404.5t-360 148.5h-274v-1106z" />
<glyph unicode="E" horiz-adv-x="1222" d="M158 0v1434h952v-164h-768v-451h686v-164h-686v-491h768v-164h-952z" />
<glyph unicode="F" horiz-adv-x="1191" d="M158 0v1434h942v-164h-758v-482h686v-163h-686v-625h-184z" />
<glyph unicode="G" horiz-adv-x="1456" d="M102 717q0 217 81.5 385t228.5 260t336 92q200 0 349.5 -95.5t225.5 -287.5l-172 -63q-115 288 -403 288q-208 0 -334.5 -156t-126.5 -423q0 -271 128.5 -425.5t356.5 -154.5q105 0 198 41t156 111v299l-344 16v148h529v-521q-90 -124 -230.5 -187.5t-308.5 -63.5 q-303 0 -486.5 203t-183.5 534z" />
<glyph unicode="H" horiz-adv-x="1431" d="M158 0v1434h184v-625h748v625h184v-1434h-184v645h-748v-645h-184z" />
<glyph unicode="I" horiz-adv-x="499" d="M158 0v1434h184v-1434h-184z" />
<glyph unicode="J" horiz-adv-x="1167" d="M47 297l168 61q42 -108 120 -161.5t200 -53.5q139 0 214.5 80.5t75.5 233.5v977h185v-983q0 -220 -125.5 -345.5t-349.5 -125.5q-177 0 -304 83t-184 234z" />
<glyph unicode="K" horiz-adv-x="1267" d="M158 0v1434h184v-699l635 699h229l-651 -703l672 -731h-244l-641 711v-711h-184z" />
<glyph unicode="L" horiz-adv-x="1128" d="M158 0v1434h184v-1270h725v-164h-909z" />
<glyph unicode="M" horiz-adv-x="1769" d="M158 0v1434h288l437 -1227l436 1227h293v-1434h-185v1225h-10l-436 -1225h-203l-436 1225h-10v-1225h-174z" />
<glyph unicode="N" horiz-adv-x="1462" d="M158 0v1434h204l754 -1147h12q-8 203 -8 424v723h185v-1434h-205l-756 1147h-10q8 -205 8 -424v-723h-184z" />
<glyph unicode="O" d="M102 717q0 217 81.5 385t227.5 260t332 92t331 -91.5t226.5 -259.5t81.5 -386t-81.5 -386t-226.5 -259.5t-331 -91.5t-332 92t-227.5 260t-81.5 385zM287 717q0 -266 124.5 -420t331.5 -154t331 154t124 420t-124 419.5t-331 153.5t-331.5 -153.5t-124.5 -419.5z" />
<glyph unicode="P" horiz-adv-x="1243" d="M158 0v1434h522q238 0 370 -117.5t132 -329.5q0 -211 -132 -327.5t-370 -116.5h-338v-543h-184zM342 707h330q154 0 239.5 73t85.5 207q0 135 -85.5 209t-239.5 74h-330v-563z" />
<glyph unicode="Q" d="M102 717q0 217 81.5 385t227.5 260t332 92t331 -91.5t226.5 -259.5t81.5 -386q0 -293 -144 -490t-380 -237l-8 -41l481 -68l-35 -168l-663 123l26 148q-250 31 -403.5 230.5t-153.5 502.5zM287 717q0 -266 124.5 -420t331.5 -154t331 154t124 420t-124 419.5t-331 153.5 t-331.5 -153.5t-124.5 -419.5z" />
<glyph unicode="R" horiz-adv-x="1294" d="M158 0v1434h553q217 0 344 -116.5t127 -320.5q0 -156 -80 -261t-223 -144l323 -592h-209l-297 571h-354v-571h-184zM342 727h360q136 0 215.5 71t79.5 199q0 127 -79.5 200t-215.5 73h-360v-543z" />
<glyph unicode="S" horiz-adv-x="1249" d="M102 319l166 60q47 -122 154 -183t237 -61q153 0 234.5 65t81.5 169q0 58 -29 101.5t-77.5 71t-111.5 49.5t-133 41.5t-140 42t-133 56t-111.5 78t-77.5 114t-29 158.5q0 167 131.5 270t353.5 103q185 0 318.5 -81t189.5 -238l-165 -60q-42 114 -134.5 168.5t-208.5 54.5 q-143 0 -223 -61.5t-80 -155.5q0 -57 29 -99.5t77.5 -69.5t111.5 -48.5t133 -41.5t140 -42t133 -56.5t111.5 -79.5t77.5 -115t29 -160q0 -179 -134.5 -284t-363.5 -105q-199 0 -348 86.5t-209 252.5z" />
<glyph unicode="T" horiz-adv-x="1228" d="M47 1270v164h1135v-164h-475v-1270h-185v1270h-475z" />
<glyph unicode="U" horiz-adv-x="1431" d="M158 575v859h184v-859q0 -115 30.5 -200.5t84 -135t118.5 -73t142 -23.5t142 23.5t118 73t83 135t30 200.5v859h184v-859q0 -149 -44 -264.5t-120.5 -186.5t-176 -107.5t-216.5 -36.5t-216.5 36.5t-177 107.5t-121.5 186.5t-44 264.5z" />
<glyph unicode="V" horiz-adv-x="1368" d="M41 1434h197l444 -1266h10l447 1266h188l-520 -1434h-248z" />
<glyph unicode="W" horiz-adv-x="1937" d="M41 1434h192l312 -1250h10l301 1250h236l299 -1250h10l311 1250h184l-380 -1434h-244l-297 1239h-10l-299 -1239h-244z" />
<glyph unicode="X" horiz-adv-x="1355" d="M47 0l492 725l-461 709h217l381 -600h10l385 600h207l-459 -707l490 -727h-217l-412 616h-10l-414 -616h-209z" />
<glyph unicode="Y" horiz-adv-x="1290" d="M41 1434h211l393 -703h10l387 703h207l-510 -877v-557h-184v555z" />
<glyph unicode="Z" horiz-adv-x="1228" d="M92 0v174l797 1075v11h-776v174h1003v-174l-797 -1076v-10h818v-174h-1045z" />
<glyph unicode="[" horiz-adv-x="634" d="M164 -389v1864h389v-154h-215v-1557h215v-153h-389z" />
<glyph unicode="\" horiz-adv-x="827" d="M0 1495h184l643 -1905h-182z" />
<glyph unicode="]" horiz-adv-x="634" d="M82 -236h215v1557h-215v154h389v-1864h-389v153z" />
<glyph unicode="^" horiz-adv-x="962" d="M72 788l327 646h160l332 -646h-186l-222 449h-10l-215 -449h-186z" />
<glyph unicode="_" horiz-adv-x="788" d="M-20 -143h829v-164h-829v164z" />
<glyph unicode="`" horiz-adv-x="501" d="M61 1454h254l125 -266h-170z" />
<glyph unicode="a" horiz-adv-x="1112" d="M100 287q0 153 110 239.5t329 98.5l258 14v53q0 109 -68.5 164t-177.5 55q-215 0 -281 -200l-159 57q34 142 154 219.5t286 77.5q199 0 311.5 -96.5t112.5 -270.5v-141q0 -371 10 -557h-154l-20 188h-14q-50 -100 -141.5 -154t-215.5 -54q-154 0 -247 84.5t-93 222.5z M279 293q0 -72 51.5 -114t140.5 -42q135 0 228.5 101t97.5 254l-230 -15q-141 -10 -214.5 -53t-73.5 -131z" />
<glyph unicode="b" horiz-adv-x="1218" d="M133 0q10 186 10 557v877h185v-564h14q114 195 342 195q200 0 321 -150t121 -395q0 -244 -121 -392t-321 -148q-228 0 -342 194h-14l-21 -174h-174zM328 520q0 -172 83.5 -274.5t223.5 -102.5t223.5 102.5t83.5 274.5t-84 276.5t-223 104.5t-223 -104.5t-84 -276.5z" />
<glyph unicode="c" horiz-adv-x="1128" d="M92 522q0 234 137 388.5t365 154.5q160 0 276 -79t166 -236l-176 -64q-76 215 -266 215q-143 0 -230.5 -104t-87.5 -275t87.5 -275t230.5 -104q194 0 276 215l177 -63q-51 -154 -173.5 -234.5t-279.5 -80.5q-228 0 -365 154t-137 388z" />
<glyph unicode="d" horiz-adv-x="1218" d="M92 520q0 245 121.5 395t321.5 150q228 0 342 -195h14v564h184v-877q0 -371 10 -557h-174l-20 174h-14q-114 -194 -342 -194q-201 0 -322 148.5t-121 391.5zM276 520q0 -172 84 -274.5t224 -102.5t223.5 102.5t83.5 274.5t-84 276.5t-223 104.5t-223.5 -104.5 t-84.5 -276.5z" />
<glyph unicode="e" horiz-adv-x="1146" d="M92 522q0 153 59.5 275.5t174 195t266.5 72.5q209 0 336 -137.5t127 -378.5q0 -49 -6 -90h-768q14 -150 98 -238t215 -88q182 0 268 174l164 -59q-55 -132 -166 -200t-266 -68q-228 0 -365 154t-137 388zM283 606h596q-12 144 -89.5 224.5t-197.5 80.5 q-127 0 -208.5 -81.5t-100.5 -223.5z" />
<glyph unicode="f" horiz-adv-x="823" d="M61 891v153h205v105q0 141 83.5 223t221.5 82q139 0 242 -70l-59 -127q-72 43 -154 43q-64 0 -106.5 -40.5t-42.5 -122.5v-93h297v-153h-297v-891h-185v891h-205z" />
<glyph unicode="g" horiz-adv-x="1218" d="M92 543q0 235 120.5 378.5t319.5 143.5q231 0 345 -195h14l20 174h174q-10 -186 -10 -536v-516q0 -193 -122.5 -307.5t-342.5 -114.5q-178 0 -304 74.5t-173 208.5l168 61q64 -190 309 -190q131 0 206 70.5t75 203.5v217h-14q-114 -195 -345 -195q-199 0 -319.5 144 t-120.5 379zM276 543q0 -160 84 -259.5t224 -99.5q139 0 223 100.5t84 260.5t-83.5 258t-223.5 98t-224 -99t-84 -259z" />
<glyph unicode="h" horiz-adv-x="1208" d="M143 0v1434h185v-324l-9 -240h23q56 94 147 144.5t199 50.5q184 0 285.5 -113t101.5 -338v-614h-184v604q0 147 -65 222t-187 75q-137 0 -224 -94.5t-87 -233.5v-573h-185z" />
<glyph unicode="i" horiz-adv-x="471" d="M96 1321q0 57 40.5 95t99.5 38t98 -38t39 -95t-39 -95t-98 -38t-99.5 38t-40.5 95zM143 0v1044h185v-1044h-185z" />
<glyph unicode="j" horiz-adv-x="563" d="M-92 -367l61 131q63 -40 137 -40q62 0 96 38t34 111v1171h184v-1179q0 -144 -79 -219.5t-212 -75.5q-135 0 -221 63zM188 1321q0 57 40.5 95t99.5 38t98 -38t39 -95t-39 -95t-98 -38t-99.5 38t-40.5 95z" />
<glyph unicode="k" horiz-adv-x="1085" d="M143 0v1434h185v-887l467 497h239l-489 -495l499 -549h-245l-471 524v-524h-185z" />
<glyph unicode="l" horiz-adv-x="471" d="M143 0v1434h185v-1434h-185z" />
<glyph unicode="m" horiz-adv-x="1812" d="M133 1044h174l19 -163h14q48 89 131.5 136.5t181.5 47.5q235 0 320 -205h14q51 98 139.5 151.5t202.5 53.5q169 0 259.5 -104.5t90.5 -315.5v-645h-184v621q0 137 -57 208.5t-162 71.5q-119 0 -195.5 -86t-76.5 -219v-596h-185v621q0 137 -57 208.5t-162 71.5 q-119 0 -195.5 -86t-76.5 -219v-596h-185v487q0 371 -10 557z" />
<glyph unicode="n" horiz-adv-x="1208" d="M133 1044h174l21 -174h14q55 93 146.5 144t199.5 51q184 0 285.5 -113t101.5 -338v-614h-184v604q0 147 -65 222t-187 75q-137 0 -224 -94.5t-87 -233.5v-573h-185v487q0 371 -10 557z" />
<glyph unicode="o" horiz-adv-x="1187" d="M92 522q0 234 137 388.5t365 154.5t365 -154.5t137 -388.5t-137 -388t-365 -154t-365 154t-137 388zM276 522q0 -171 87.5 -275t230.5 -104t230 104t87 275t-87 275t-230 104t-230.5 -104t-87.5 -275z" />
<glyph unicode="p" horiz-adv-x="1218" d="M133 1044h174l21 -174h14q114 195 342 195q201 0 321.5 -149t120.5 -394t-120.5 -393.5t-321.5 -148.5q-228 0 -342 194h-14v-584h-185v897q0 371 -10 557zM328 520q0 -172 83.5 -274.5t223.5 -102.5t223.5 102.5t83.5 274.5t-84 276.5t-223 104.5t-223 -104.5 t-84 -276.5z" />
<glyph unicode="q" horiz-adv-x="1218" d="M92 522q0 245 121 394t322 149q228 0 342 -195h14l20 174h174q-10 -186 -10 -557v-897h-184v584h-14q-114 -194 -342 -194q-201 0 -322 148.5t-121 393.5zM276 520q0 -172 84 -274.5t224 -102.5t223.5 102.5t83.5 274.5t-84 276.5t-223 104.5t-223.5 -104.5t-84.5 -276.5 z" />
<glyph unicode="r" horiz-adv-x="798" d="M133 1044h174l25 -204h12q45 109 128.5 167t193.5 58q47 0 82 -2v-174q-33 2 -78 2q-52 0 -99 -12.5t-92 -43t-78 -76.5t-53 -118t-20 -162v-479h-185v487q0 371 -10 557z" />
<glyph unicode="s" horiz-adv-x="1003" d="M92 248l156 55q29 -91 106.5 -135.5t171.5 -44.5q99 0 153 41.5t54 109.5q0 44 -26.5 75t-70 47.5t-98.5 32.5t-113 29t-113 38t-98.5 58t-70 91t-26.5 135q0 126 102 205.5t273 79.5q145 0 251.5 -63t143.5 -185l-156 -55q-28 82 -91.5 121t-147.5 39q-94 0 -145.5 -40 t-51.5 -102q0 -50 34 -83.5t88.5 -52t120 -34t131 -38t120 -55.5t88.5 -94.5t34 -148.5q0 -133 -105.5 -213.5t-279.5 -80.5q-98 0 -182.5 25.5t-154 87.5t-97.5 155z" />
<glyph unicode="t" horiz-adv-x="860" d="M61 891v153h220l45 287h125v-287h303v-153h-303v-608q0 -74 36.5 -112t96.5 -38q76 0 145 43l59 -127q-104 -69 -233 -69q-131 0 -210 76.5t-79 219.5v615h-205z" />
<glyph unicode="u" horiz-adv-x="1208" d="M133 430v614h184v-604q0 -147 65 -222t187 -75q137 0 224.5 94.5t87.5 233.5v573h184v-487q0 -371 10 -557h-174l-20 174h-15q-55 -93 -146.5 -143.5t-199.5 -50.5q-185 0 -286 112.5t-101 337.5z" />
<glyph unicode="v" horiz-adv-x="1052" d="M35 1044h196l293 -864h11l290 864h193l-377 -1044h-229z" />
<glyph unicode="w" horiz-adv-x="1515" d="M35 1044h190l215 -839h11l198 839h228l196 -839h10l215 839h183l-289 -1044h-225l-203 860h-10l-205 -860h-225z" />
<glyph unicode="x" horiz-adv-x="1056" d="M47 0l350 532l-329 512h211l247 -411h11l247 411h205l-330 -514l351 -530h-213l-265 424h-10l-268 -424h-207z" />
<glyph unicode="y" horiz-adv-x="1073" d="M35 1044h196l304 -845h10l301 845h192l-559 -1454h-192l157 392z" />
<glyph unicode="z" horiz-adv-x="1001" d="M92 0v162l567 700v10h-550v172h784v-161l-567 -701v-10h583v-172h-817z" />
<glyph unicode="{" horiz-adv-x="696" d="M41 461v164h63q68 0 100 37t32 116v396q0 139 75 220t228 81h75v-154h-65q-68 0 -103.5 -40t-35.5 -114v-395q0 -186 -113 -225v-10q113 -39 113 -224v-395q0 -74 35.5 -114t103.5 -40h65v-153h-75q-153 0 -228 81t-75 220v395q0 79 -32 116.5t-100 37.5h-63z" />
<glyph unicode="|" horiz-adv-x="552" d="M184 -410v1844h185v-1844h-185z" />
<glyph unicode="}" horiz-adv-x="696" d="M82 -236h65q68 0 104 40t36 114v395q0 185 112 224v10q-112 39 -112 225v395q0 74 -36 114t-104 40h-65v154h76q153 0 228 -81t75 -220v-396q0 -79 31.5 -116t99.5 -37h63v-164h-63q-68 0 -99.5 -37.5t-31.5 -116.5v-395q0 -139 -75 -220t-228 -81h-76v153z" />
<glyph unicode="~" horiz-adv-x="1034" d="M72 440v72q0 73 21.5 128.5t57.5 86.5t78 46t88 15q53 0 114.5 -27t106 -60t92.5 -60t77 -27q42 0 67 28.5t25 84.5v61h164v-71q0 -73 -21.5 -128.5t-58 -86.5t-78.5 -46.5t-88 -15.5q-59 0 -120.5 27t-103.5 60t-87.5 60t-77.5 27q-42 0 -67 -28t-25 -84v-62h-164z" />
<glyph unicode="&#xa1;" horiz-adv-x="583" d="M154 932q0 58 40.5 95.5t98.5 37.5t97.5 -37.5t39.5 -95.5t-39.5 -95.5t-97.5 -37.5t-98.5 37.5t-40.5 95.5zM190 -389l21 1014h164l20 -1014h-205z" />
<glyph unicode="&#xa2;" horiz-adv-x="1126" d="M92 522q0 209 110.5 357t299.5 178v203h184v-201q127 -21 217.5 -98.5t132.5 -210.5l-176 -64q-76 215 -266 215q-143 0 -230.5 -104t-87.5 -275t87.5 -275t230.5 -104q192 0 274 215l176 -63q-43 -131 -137.5 -208.5t-220.5 -98.5v-203h-184v203q-189 30 -299.5 177.5 t-110.5 356.5z" />
<glyph unicode="&#xa3;" horiz-adv-x="1239" d="M92 102q129 108 180.5 212t51.5 225q0 11 -5 61h-227v154h174q-2 5 -14 29.5t-15.5 31.5t-13.5 29.5t-13.5 33t-11 31.5t-10.5 36l-7 35t-5.5 39.5t-1.5 39.5q0 180 127.5 287.5t341.5 107.5q372 0 490 -307l-162 -57q-91 206 -328 206q-131 0 -208 -67.5t-77 -169.5 q0 -42 11 -87t21 -70.5t35 -78.5t32 -69h374v-154h-327q4 -40 4 -61q0 -195 -158 -361l6 -10q114 47 199 47q64 0 166.5 -36t146.5 -36q95 0 179 84l110 -108q-69 -74 -130.5 -106.5t-147.5 -32.5q-75 0 -191.5 35.5t-191.5 35.5q-120 0 -322 -82z" />
<glyph unicode="&#xa4;" horiz-adv-x="1155" d="M92 338l123 125q-76 116 -76 254t76 254l-123 125l109 108l125 -125q110 74 252 74q141 0 251 -74l125 125l109 -110l-123 -123q74 -113 74 -254q0 -143 -76 -252l125 -125l-109 -111l-125 125q-109 -73 -251 -73q-143 0 -252 73l-125 -125zM303 717q0 -121 77.5 -199 t197.5 -78q119 0 195.5 78t76.5 199q0 122 -76 199t-196 77t-197.5 -77.5t-77.5 -198.5z" />
<glyph unicode="&#xa5;" horiz-adv-x="1290" d="M41 1434h211l393 -703h10l387 703h207l-444 -764h303v-144h-369v-153h369v-144h-369v-229h-184v229h-369v144h369v153h-369v144h301z" />
<glyph unicode="&#xa6;" horiz-adv-x="552" d="M184 328h185v-738h-185v738zM184 696v738h185v-738h-185z" />
<glyph unicode="&#xa7;" horiz-adv-x="1015" d="M92 68l164 59q24 -91 101 -134.5t173 -43.5q101 0 155 38.5t54 100.5q0 43 -21 77t-56.5 56.5t-82 41.5t-97.5 35.5t-102 35t-97.5 44t-82 57.5t-56.5 80.5t-21 109.5q0 156 194 235v10q-91 41 -142.5 109.5t-51.5 183.5q0 127 105.5 209t275.5 82q149 0 252.5 -62 t142.5 -184l-162 -57q-48 149 -233 149q-98 0 -147.5 -38.5t-49.5 -98.5q0 -43 21 -77t57 -57t82 -41.5t97.5 -35.5t102.5 -35t97 -43.5t82 -57.5t57 -80t21 -109q0 -157 -195 -236v-10q195 -88 195 -293q0 -131 -110 -212t-284 -81q-102 0 -187 26.5t-153.5 89.5t-97.5 157 zM297 645q0 -29 8.5 -53.5t28 -43.5t38 -32.5t54 -27.5t59 -22t68.5 -22q95 21 146 65t51 97q0 35 -14.5 63.5t-33.5 46.5t-57.5 36.5t-65 27.5t-77.5 25q-99 -14 -152 -61t-53 -99z" />
<glyph unicode="&#xa8;" horiz-adv-x="745" d="M61 1321q0 52 38.5 87.5t93.5 35.5q53 0 88.5 -35.5t35.5 -87.5t-35.5 -87.5t-88.5 -35.5q-55 0 -93.5 35.5t-38.5 87.5zM428 1321q0 52 38.5 87.5t92.5 35.5q53 0 89 -35.5t36 -87.5t-36 -87.5t-89 -35.5q-54 0 -92.5 35.5t-38.5 87.5z" />
<glyph unicode="&#xa9;" horiz-adv-x="1499" d="M51 719q0 202 87 369.5t248 266.5t364 99q153 0 284.5 -58t221.5 -157t141 -234t51 -286q0 -153 -51 -288.5t-141.5 -235t-221.5 -157.5t-284 -58q-203 0 -364 99t-248 267.5t-87 372.5zM174 719q0 -174 71.5 -316.5t204 -226.5t300.5 -84q126 0 234.5 49t182.5 133.5 t116 199.5t42 245q0 128 -42 242t-116 198t-182.5 133t-234.5 49q-168 0 -300.5 -83.5t-204 -225t-71.5 -313.5zM420 717q0 165 91.5 266.5t244.5 101.5q113 0 192.5 -56t110.5 -167l-135 -33q-43 142 -168 142q-89 0 -142 -68.5t-53 -185.5t53 -185.5t142 -68.5 q60 0 105.5 35.5t68.5 105.5l133 -33q-33 -112 -113 -167.5t-194 -55.5q-153 0 -244.5 102t-91.5 267z" />
<glyph unicode="&#xaa;" horiz-adv-x="688" d="M66 981q0 91 66.5 143t189.5 60l157 10v35q0 60 -39 91.5t-100 31.5q-58 0 -96.5 -28t-53.5 -79l-118 33q20 84 92.5 130t175.5 46q126 0 197 -57t71 -162v-88q0 -221 6 -332h-112l-17 117h-8q-57 -129 -211 -129q-90 0 -145 49t-55 129zM197 995q0 -40 29 -64t81 -24 q78 0 125 52.5t47 150.5l-131 -8q-151 -10 -151 -107z" />
<glyph unicode="&#xab;" horiz-adv-x="1064" d="M47 532l311 338h226l-318 -338l318 -337h-226zM457 532l311 338h225l-317 -338l317 -337h-225z" />
<glyph unicode="&#xac;" horiz-adv-x="1034" d="M72 655v174h891v-430h-185v256h-706z" />
<glyph unicode="&#xad;" horiz-adv-x="839" d="M82 492v163h676v-163h-676z" />
<glyph unicode="&#xae;" horiz-adv-x="1499" d="M51 719q0 202 87 369.5t248 266.5t364 99q153 0 284 -58t221.5 -157t141.5 -234t51 -286q0 -153 -51 -288.5t-141.5 -235t-221.5 -157.5t-284 -58q-203 0 -364 99t-248 267.5t-87 372.5zM174 719q0 -174 71.5 -316.5t204 -226.5t300.5 -84q126 0 234.5 49t182.5 133.5 t116 199.5t42 245q0 128 -42 242t-116 198t-182.5 133t-234.5 49q-168 0 -300.5 -83.5t-204 -225t-71.5 -313.5zM496 358v717h297q115 0 181 -58.5t66 -164.5q0 -73 -34.5 -124.5t-98.5 -74.5v-14l154 -281h-156l-139 277h-133v-277h-137zM633 739h149q55 0 88 29.5t33 83.5 q0 53 -32.5 83t-88.5 30h-149v-226z" />
<glyph unicode="&#xaf;" horiz-adv-x="675" d="M61 1245v164h553v-164h-553z" />
<glyph unicode="&#xb0;" horiz-adv-x="704" d="M51 1137q0 134 84.5 225.5t216.5 91.5q133 0 217 -91.5t84 -225.5q0 -135 -84 -226.5t-217 -91.5q-132 0 -216.5 92t-84.5 226zM195 1137q0 -77 44 -131t113 -54t113.5 54t44.5 131q0 78 -44.5 131t-113.5 53t-113 -53t-44 -131z" />
<glyph unicode="&#xb1;" horiz-adv-x="1034" d="M72 102v174h891v-174h-891zM72 655v174h362v297h168v-297h361v-174h-361v-297h-168v297h-362z" />
<glyph unicode="&#xb2;" horiz-adv-x="647" d="M51 1466q24 85 96 134t179 49q116 0 188 -57.5t72 -157.5q0 -78 -48 -144t-161 -162l-90 -75v-9h299v-122h-514v110l211 180q83 71 121 120t38 102q0 46 -33.5 73t-82.5 27q-48 0 -84.5 -25.5t-53.5 -74.5z" />
<glyph unicode="&#xb3;" horiz-adv-x="665" d="M51 1092l139 34q14 -46 52 -72t92 -26q57 0 92 30.5t35 82.5q0 51 -35.5 79.5t-97.5 28.5h-109v86l174 172v9h-311v122h491v-114l-178 -174q96 -8 152.5 -65.5t56.5 -147.5q0 -103 -72 -164.5t-198 -61.5q-108 0 -184 48t-99 133z" />
<glyph unicode="&#xb4;" horiz-adv-x="501" d="M61 1188l125 266h254l-209 -266h-170z" />
<glyph unicode="&#xb5;" horiz-adv-x="1280" d="M133 -410v1454h184v-604q0 -147 65 -222t187 -75q137 0 224.5 94.5t87.5 233.5v573h184v-774q0 -106 98 -106h66v-164h-107q-201 0 -227 182h-12q-108 -202 -314 -202q-176 0 -252 129h-10l10 -261v-258h-184z" />
<glyph unicode="&#xb6;" horiz-adv-x="1468" d="M61 942q0 135 37 234t101.5 153.5t140.5 79.5t166 25h870v-174h-164v-1670h-184v1670h-225v-1670h-185v861h-112q-71 0 -133.5 14.5t-121 50.5t-99.5 91t-66 140.5t-25 194.5z" />
<glyph unicode="&#xb7;" horiz-adv-x="440" d="M82 543q0 58 40.5 95.5t98.5 37.5t97.5 -37.5t39.5 -95.5t-39.5 -95.5t-97.5 -37.5t-98.5 37.5t-40.5 95.5z" />
<glyph unicode="&#xb8;" horiz-adv-x="602" d="M61 -401l68 106q74 -53 160 -53q48 0 78 21t30 57q0 38 -26.5 56.5t-69.5 18.5q-37 0 -80 -12l-31 45l60 172h108l-34 -102h12q89 0 147 -48t58 -134q0 -88 -66 -142.5t-186 -54.5q-136 0 -228 70z" />
<glyph unicode="&#xb9;" horiz-adv-x="456" d="M51 1391v143l193 104h110v-716h-143v555h-8z" />
<glyph unicode="&#xba;" horiz-adv-x="720" d="M55 1128q0 143 83 234.5t222 91.5t222.5 -91.5t83.5 -234.5t-83.5 -234t-222.5 -91t-222 91t-83 234zM188 1128q0 -98 47.5 -156.5t124.5 -58.5t124.5 58.5t47.5 156.5t-47.5 156.5t-124.5 58.5t-124.5 -58.5t-47.5 -156.5z" />
<glyph unicode="&#xbb;" horiz-adv-x="1064" d="M72 195l317 337l-317 338h225l311 -338l-311 -337h-225zM481 195l318 337l-318 338h226l311 -338l-311 -337h-226z" />
<glyph unicode="&#xbc;" horiz-adv-x="1425" d="M51 1186v143l193 105h110v-717h-143v555h-8zM129 0l911 1434h160l-913 -1434h-158zM791 131v133l331 453h158v-463h94v-123h-94v-131h-145v131h-344zM930 254h205v283z" />
<glyph unicode="&#xbd;" horiz-adv-x="1478" d="M51 1186v143l193 105h110v-717h-143v555h-8zM129 0l911 1434h160l-913 -1434h-158zM883 545q24 85 95.5 133.5t178.5 48.5q116 0 188 -57.5t72 -157.5q0 -78 -47.5 -143.5t-161.5 -161.5l-90 -76v-8h299v-123h-514v111l211 180q84 72 122 120t38 101q0 46 -34 73t-83 27 q-48 0 -84 -25.5t-53 -74.5z" />
<glyph unicode="&#xbe;" horiz-adv-x="1613" d="M51 887l139 35q14 -46 52 -72.5t92 -26.5q57 0 92 30.5t35 82.5q0 51 -35.5 79.5t-97.5 28.5h-109v86l174 173v8h-311v123h491v-115l-178 -174q96 -8 152.5 -65.5t56.5 -147.5q0 -102 -72 -163.5t-198 -61.5q-108 0 -184 47.5t-99 132.5zM317 0l912 1434h160l-914 -1434 h-158zM979 131v133l332 453h157v-463h95v-123h-95v-131h-145v131h-344zM1118 254h205v283z" />
<glyph unicode="&#xbf;" horiz-adv-x="1122" d="M92 -27q0 70 21 130t54.5 102.5t73.5 80t80.5 72t74 69.5t54.5 80t21 97v21h172v-21q0 -66 -20 -123.5t-52.5 -99.5t-71.5 -80.5t-78.5 -74t-72 -72t-52.5 -83t-20 -98.5q0 -103 81.5 -164t203.5 -61q259 0 342 250l168 -59q-47 -165 -182 -257t-326 -92 q-208 0 -339.5 105.5t-131.5 277.5zM420 932q0 58 39.5 95.5t97.5 37.5t98.5 -37.5t40.5 -95.5t-40.5 -95.5t-98.5 -37.5t-97.5 37.5t-39.5 95.5z" />
<glyph unicode="&#xc0;" horiz-adv-x="1353" d="M35 0l514 1434h254l516 -1434h-197l-114 328h-670l-115 -328h-188zM379 1843h254l125 -266h-170zM391 481h563l-276 793h-10z" />
<glyph unicode="&#xc1;" horiz-adv-x="1353" d="M35 0l514 1434h254l516 -1434h-197l-114 328h-670l-115 -328h-188zM391 481h563l-276 793h-10zM594 1577l125 266h254l-209 -266h-170z" />
<glyph unicode="&#xc2;" horiz-adv-x="1353" d="M35 0l514 1434h254l516 -1434h-197l-114 328h-670l-115 -328h-188zM352 1577l230 266h186l229 -266h-213l-112 154l-117 -154h-203zM391 481h563l-276 793h-10z" />
<glyph unicode="&#xc3;" horiz-adv-x="1353" d="M35 0l514 1434h254l516 -1434h-197l-114 328h-670l-115 -328h-188zM369 1567v59q0 118 49 172.5t117 54.5q42 0 83 -21t67.5 -45.5t56.5 -45.5t53 -21q59 0 59 133h129v-63q0 -64 -14.5 -109.5t-39.5 -69t-52.5 -34t-59.5 -10.5q-43 0 -84 21t-67.5 45.5t-56 45.5 t-52.5 21q-59 0 -59 -133h-129zM391 481h563l-276 793h-10z" />
<glyph unicode="&#xc4;" horiz-adv-x="1353" d="M35 0l514 1434h254l516 -1434h-197l-114 328h-670l-115 -328h-188zM365 1710q0 52 38.5 87.5t92.5 35.5q53 0 89 -35.5t36 -87.5t-36 -87.5t-89 -35.5q-54 0 -92.5 35.5t-38.5 87.5zM391 481h563l-276 793h-10zM731 1710q0 52 38.5 87.5t92.5 35.5q53 0 89 -35.5 t36 -87.5t-36 -87.5t-89 -35.5q-54 0 -92.5 35.5t-38.5 87.5z" />
<glyph unicode="&#xc5;" horiz-adv-x="1353" d="M35 0l514 1434h254l516 -1434h-197l-114 328h-670l-115 -328h-188zM391 481h563l-276 793h-10zM449 1751q0 89 65 147t162 58t162 -58t65 -147t-65 -147t-162 -58t-162 58t-65 147zM582 1751q0 -41 26.5 -66.5t67.5 -25.5t67.5 25.5t26.5 66.5t-26.5 66.5t-67.5 25.5 t-67.5 -25.5t-26.5 -66.5z" />
<glyph unicode="&#xc6;" horiz-adv-x="1976" d="M35 0l778 1434h1051v-164h-676v-451h594v-164h-594v-491h676v-164h-860v328h-592l-174 -328h-203zM492 481h512v789h-95z" />
<glyph unicode="&#xc7;" horiz-adv-x="1415" d="M102 717q0 217 81.5 385t227.5 260t332 92q201 0 352.5 -104t217.5 -314l-174 -63q-109 317 -396 317q-207 0 -331.5 -153.5t-124.5 -419.5t124.5 -420t331.5 -154q293 0 406 318l174 -64q-65 -199 -203.5 -301.5t-326.5 -113.5l-25 -74h12q89 0 147 -48t58 -134 q0 -88 -66 -142.5t-186 -54.5q-135 0 -227 70l67 106q74 -53 160 -53q48 0 78.5 21t30.5 57q0 38 -27 56.5t-70 18.5q-35 0 -79 -12l-31 45l49 144q-259 23 -420.5 224t-161.5 511z" />
<glyph unicode="&#xc8;" horiz-adv-x="1222" d="M158 0v1434h952v-164h-768v-451h686v-164h-686v-491h768v-164h-952zM348 1843h254l125 -266h-170z" />
<glyph unicode="&#xc9;" horiz-adv-x="1222" d="M158 0v1434h952v-164h-768v-451h686v-164h-686v-491h768v-164h-952zM563 1577l125 266h254l-209 -266h-170z" />
<glyph unicode="&#xca;" horiz-adv-x="1222" d="M158 0v1434h952v-164h-768v-451h686v-164h-686v-491h768v-164h-952zM322 1577l229 266h186l230 -266h-213l-113 154l-117 -154h-202z" />
<glyph unicode="&#xcb;" horiz-adv-x="1222" d="M158 0v1434h952v-164h-768v-451h686v-164h-686v-491h768v-164h-952zM334 1710q0 52 38.5 87.5t92.5 35.5q53 0 89 -35.5t36 -87.5t-36 -87.5t-89 -35.5q-54 0 -92.5 35.5t-38.5 87.5zM700 1710q0 52 38.5 87.5t92.5 35.5q53 0 89 -35.5t36 -87.5t-36 -87.5t-89 -35.5 q-54 0 -92.5 35.5t-38.5 87.5z" />
<glyph unicode="&#xcc;" horiz-adv-x="499" d="M-47 1843h254l125 -266h-170zM158 0v1434h184v-1434h-184z" />
<glyph unicode="&#xcd;" horiz-adv-x="499" d="M158 0v1434h184v-1434h-184zM168 1577l125 266h254l-209 -266h-170z" />
<glyph unicode="&#xce;" horiz-adv-x="499" d="M-74 1577l230 266h186l229 -266h-213l-112 154l-117 -154h-203zM158 0v1434h184v-1434h-184z" />
<glyph unicode="&#xcf;" horiz-adv-x="499" d="M-23 1710q0 53 32.5 88t84.5 35t85.5 -35t33.5 -88t-33.5 -88t-85.5 -35t-84.5 35t-32.5 88zM158 0v1434h184v-1434h-184zM285 1710q0 53 32 88t84 35t85.5 -35t33.5 -88t-33.5 -88t-85.5 -35t-84 35t-32 88z" />
<glyph unicode="&#xd0;" horiz-adv-x="1505" d="M20 635v164h246v635h459q202 0 356 -89t238 -252t84 -376t-84 -376t-238 -252t-356 -89h-459v635h-246zM451 164h274q226 0 360 148.5t134 404.5t-134 404.5t-360 148.5h-274v-471h399v-164h-399v-471z" />
<glyph unicode="&#xd1;" horiz-adv-x="1462" d="M158 0v1434h204l754 -1147h12q-8 203 -8 424v723h185v-1434h-205l-756 1147h-10q8 -205 8 -424v-723h-184zM424 1567v59q0 118 49 172.5t117 54.5q42 0 83 -21t67.5 -45.5t56.5 -45.5t53 -21q59 0 59 133h129v-63q0 -64 -14.5 -109.5t-39.5 -69t-52.5 -34t-59.5 -10.5 q-43 0 -84 21t-67.5 45.5t-56 45.5t-52.5 21q-59 0 -59 -133h-129z" />
<glyph unicode="&#xd2;" d="M102 717q0 217 81.5 385t227.5 260t332 92t331 -91.5t226.5 -259.5t81.5 -386t-81.5 -386t-226.5 -259.5t-331 -91.5t-332 92t-227.5 260t-81.5 385zM287 717q0 -266 124.5 -420t331.5 -154t331 154t124 420t-124 419.5t-331 153.5t-331.5 -153.5t-124.5 -419.5z M446 1843h254l125 -266h-170z" />
<glyph unicode="&#xd3;" d="M102 717q0 217 81.5 385t227.5 260t332 92t331 -91.5t226.5 -259.5t81.5 -386t-81.5 -386t-226.5 -259.5t-331 -91.5t-332 92t-227.5 260t-81.5 385zM287 717q0 -266 124.5 -420t331.5 -154t331 154t124 420t-124 419.5t-331 153.5t-331.5 -153.5t-124.5 -419.5z M662 1577l124 266h254l-209 -266h-169z" />
<glyph unicode="&#xd4;" d="M102 717q0 217 81.5 385t227.5 260t332 92t331 -91.5t226.5 -259.5t81.5 -386t-81.5 -386t-226.5 -259.5t-331 -91.5t-332 92t-227.5 260t-81.5 385zM287 717q0 -266 124.5 -420t331.5 -154t331 154t124 420t-124 419.5t-331 153.5t-331.5 -153.5t-124.5 -419.5z M420 1577l229 266h187l229 -266h-213l-113 154l-116 -154h-203z" />
<glyph unicode="&#xd5;" d="M102 717q0 217 81.5 385t227.5 260t332 92t331 -91.5t226.5 -259.5t81.5 -386t-81.5 -386t-226.5 -259.5t-331 -91.5t-332 92t-227.5 260t-81.5 385zM287 717q0 -266 124.5 -420t331.5 -154t331 154t124 420t-124 419.5t-331 153.5t-331.5 -153.5t-124.5 -419.5z M436 1567v59q0 118 49 172.5t117 54.5q42 0 83 -21t67.5 -45.5t56.5 -45.5t53 -21q60 0 60 133h129v-63q0 -64 -14.5 -109.5t-39.5 -69t-52.5 -34t-59.5 -10.5q-43 0 -84 21t-67.5 45.5t-56 45.5t-52.5 21q-60 0 -60 -133h-129z" />
<glyph unicode="&#xd6;" d="M102 717q0 217 81.5 385t227.5 260t332 92t331 -91.5t226.5 -259.5t81.5 -386t-81.5 -386t-226.5 -259.5t-331 -91.5t-332 92t-227.5 260t-81.5 385zM287 717q0 -266 124.5 -420t331.5 -154t331 154t124 420t-124 419.5t-331 153.5t-331.5 -153.5t-124.5 -419.5z M432 1710q0 52 38.5 87.5t92.5 35.5q53 0 89 -35.5t36 -87.5t-36 -87.5t-89 -35.5q-54 0 -92.5 35.5t-38.5 87.5zM799 1710q0 52 38.5 87.5t92.5 35.5q53 0 89 -35.5t36 -87.5t-36 -87.5t-89 -35.5q-54 0 -92.5 35.5t-38.5 87.5z" />
<glyph unicode="&#xd7;" horiz-adv-x="1034" d="M72 281l331 335l-329 332l114 115l330 -332l328 334l117 -117l-330 -332l330 -335l-117 -117l-328 336l-330 -336z" />
<glyph unicode="&#xd8;" d="M102 717q0 217 81.5 385t227.5 260t332 92q167 0 297 -74l125 217l129 -61l-137 -238q107 -98 166 -247t59 -334q0 -218 -81.5 -386t-226.5 -259.5t-331 -91.5q-164 0 -301 73l-125 -217l-127 62l138 239q-107 98 -166.5 247.5t-59.5 332.5zM287 717q0 -272 129 -426 l542 946q-92 53 -215 53q-207 0 -331.5 -153.5t-124.5 -419.5zM526 199q92 -56 217 -56q207 0 331 154t124 420q0 272 -129 426z" />
<glyph unicode="&#xd9;" horiz-adv-x="1431" d="M158 575v859h184v-859q0 -115 30.5 -200.5t84 -135t118.5 -73t142 -23.5t142 23.5t118 73t83 135t30 200.5v859h184v-859q0 -149 -44 -264.5t-120.5 -186.5t-176 -107.5t-216.5 -36.5t-216.5 36.5t-177 107.5t-121.5 186.5t-44 264.5zM420 1843h254l125 -266h-170z" />
<glyph unicode="&#xda;" horiz-adv-x="1431" d="M158 575v859h184v-859q0 -115 30.5 -200.5t84 -135t118.5 -73t142 -23.5t142 23.5t118 73t83 135t30 200.5v859h184v-859q0 -149 -44 -264.5t-120.5 -186.5t-176 -107.5t-216.5 -36.5t-216.5 36.5t-177 107.5t-121.5 186.5t-44 264.5zM635 1577l125 266h254l-209 -266 h-170z" />
<glyph unicode="&#xdb;" horiz-adv-x="1431" d="M158 575v859h184v-859q0 -115 30.5 -200.5t84 -135t118.5 -73t142 -23.5t142 23.5t118 73t83 135t30 200.5v859h184v-859q0 -149 -44 -264.5t-120.5 -186.5t-176 -107.5t-216.5 -36.5t-216.5 36.5t-177 107.5t-121.5 186.5t-44 264.5zM393 1577l230 266h186l229 -266 h-213l-112 154l-117 -154h-203z" />
<glyph unicode="&#xdc;" horiz-adv-x="1431" d="M158 575v859h184v-859q0 -115 30.5 -200.5t84 -135t118.5 -73t142 -23.5t142 23.5t118 73t83 135t30 200.5v859h184v-859q0 -149 -44 -264.5t-120.5 -186.5t-176 -107.5t-216.5 -36.5t-216.5 36.5t-177 107.5t-121.5 186.5t-44 264.5zM406 1710q0 52 38.5 87.5t92.5 35.5 q53 0 89 -35.5t36 -87.5t-36 -87.5t-89 -35.5q-54 0 -92.5 35.5t-38.5 87.5zM772 1710q0 52 38.5 87.5t92.5 35.5q53 0 89 -35.5t36 -87.5t-36 -87.5t-89 -35.5q-54 0 -92.5 35.5t-38.5 87.5z" />
<glyph unicode="&#xdd;" horiz-adv-x="1290" d="M41 1434h211l393 -703h10l387 703h207l-510 -877v-557h-184v555zM563 1577l125 266h254l-209 -266h-170z" />
<glyph unicode="&#xde;" horiz-adv-x="1232" d="M158 0v1434h184v-318h369q219 0 339.5 -106.5t120.5 -292.5t-120.5 -293t-339.5 -107h-369v-317h-184zM342 481h358q138 0 212.5 62.5t74.5 173.5t-74.5 173t-212.5 62h-358v-471z" />
<glyph unicode="&#xdf;" horiz-adv-x="1204" d="M143 0v1020q0 193 118.5 313.5t344.5 120.5q206 0 325.5 -108t119.5 -281q0 -116 -54.5 -198.5t-154.5 -116.5v-11q131 -36 200.5 -126.5t69.5 -231.5q0 -185 -116.5 -293t-315.5 -108q-161 0 -283 65l70 150q100 -56 201 -56q123 0 191.5 64t68.5 190q0 125 -76.5 194.5 t-216.5 69.5h-107v160h76q132 0 202.5 64t70.5 176q0 102 -73 169.5t-198 67.5q-133 0 -205.5 -79t-72.5 -195v-1020h-185z" />
<glyph unicode="&#xe0;" horiz-adv-x="1112" d="M100 287q0 153 110 239.5t329 98.5l258 14v53q0 109 -68.5 164t-177.5 55q-215 0 -281 -200l-159 57q34 142 154 219.5t286 77.5q199 0 311.5 -96.5t112.5 -270.5v-141q0 -371 10 -557h-154l-20 188h-14q-50 -100 -141.5 -154t-215.5 -54q-154 0 -247 84.5t-93 222.5z M254 1454h254l125 -266h-170zM279 293q0 -72 51.5 -114t140.5 -42q135 0 228.5 101t97.5 254l-230 -15q-141 -10 -214.5 -53t-73.5 -131z" />
<glyph unicode="&#xe1;" horiz-adv-x="1112" d="M100 287q0 153 110 239.5t329 98.5l258 14v53q0 109 -68.5 164t-177.5 55q-215 0 -281 -200l-159 57q34 142 154 219.5t286 77.5q199 0 311.5 -96.5t112.5 -270.5v-141q0 -371 10 -557h-154l-20 188h-14q-50 -100 -141.5 -154t-215.5 -54q-154 0 -247 84.5t-93 222.5z M279 293q0 -72 51.5 -114t140.5 -42q135 0 228.5 101t97.5 254l-230 -15q-141 -10 -214.5 -53t-73.5 -131zM469 1188l125 266h254l-209 -266h-170z" />
<glyph unicode="&#xe2;" horiz-adv-x="1112" d="M100 287q0 153 110 239.5t329 98.5l258 14v53q0 109 -68.5 164t-177.5 55q-215 0 -281 -200l-159 57q34 142 154 219.5t286 77.5q199 0 311.5 -96.5t112.5 -270.5v-141q0 -371 10 -557h-154l-20 188h-14q-50 -100 -141.5 -154t-215.5 -54q-154 0 -247 84.5t-93 222.5z M227 1188l230 266h186l229 -266h-213l-112 153l-117 -153h-203zM279 293q0 -72 51.5 -114t140.5 -42q135 0 228.5 101t97.5 254l-230 -15q-141 -10 -214.5 -53t-73.5 -131z" />
<glyph unicode="&#xe3;" horiz-adv-x="1112" d="M100 287q0 153 110 239.5t329 98.5l258 14v53q0 109 -68.5 164t-177.5 55q-215 0 -281 -200l-159 57q34 142 154 219.5t286 77.5q199 0 311.5 -96.5t112.5 -270.5v-141q0 -371 10 -557h-154l-20 188h-14q-50 -100 -141.5 -154t-215.5 -54q-154 0 -247 84.5t-93 222.5z M244 1178v59q0 118 49 172.5t117 54.5q42 0 83 -21t67.5 -45.5t56.5 -45.5t53 -21q59 0 59 133h129v-63q0 -64 -14.5 -109.5t-39.5 -69t-52.5 -34t-59.5 -10.5q-43 0 -84 21t-67.5 45.5t-56 45.5t-52.5 21q-59 0 -59 -133h-129zM279 293q0 -72 51.5 -114t140.5 -42 q135 0 228.5 101t97.5 254l-230 -15q-141 -10 -214.5 -53t-73.5 -131z" />
<glyph unicode="&#xe4;" horiz-adv-x="1112" d="M100 287q0 153 110 239.5t329 98.5l258 14v53q0 109 -68.5 164t-177.5 55q-215 0 -281 -200l-159 57q34 142 154 219.5t286 77.5q199 0 311.5 -96.5t112.5 -270.5v-141q0 -371 10 -557h-154l-20 188h-14q-50 -100 -141.5 -154t-215.5 -54q-154 0 -247 84.5t-93 222.5z M240 1321q0 52 38.5 87.5t92.5 35.5q53 0 89 -35.5t36 -87.5t-36 -87.5t-89 -35.5q-54 0 -92.5 35.5t-38.5 87.5zM279 293q0 -72 51.5 -114t140.5 -42q135 0 228.5 101t97.5 254l-230 -15q-141 -10 -214.5 -53t-73.5 -131zM606 1321q0 52 38.5 87.5t92.5 35.5q53 0 89 -35.5 t36 -87.5t-36 -87.5t-89 -35.5q-54 0 -92.5 35.5t-38.5 87.5z" />
<glyph unicode="&#xe5;" horiz-adv-x="1112" d="M100 287q0 153 110 239.5t329 98.5l258 14v53q0 109 -68.5 164t-177.5 55q-215 0 -281 -200l-159 57q34 142 154 219.5t286 77.5q199 0 311.5 -96.5t112.5 -270.5v-141q0 -371 10 -557h-154l-20 188h-14q-50 -100 -141.5 -154t-215.5 -54q-154 0 -247 84.5t-93 222.5z M279 293q0 -72 51.5 -114t140.5 -42q135 0 228.5 101t97.5 254l-230 -15q-141 -10 -214.5 -53t-73.5 -131zM324 1362q0 89 65 147t162 58t162 -58t65 -147t-65 -147t-162 -58t-162 58t-65 147zM457 1362q0 -41 26.5 -66.5t67.5 -25.5t67.5 25.5t26.5 66.5t-26.5 66.5 t-67.5 25.5t-67.5 -25.5t-26.5 -66.5z" />
<glyph unicode="&#xe6;" horiz-adv-x="1808" d="M100 293q0 147 110 230t306 83h272v41q0 125 -75 194.5t-178 69.5q-197 0 -259 -198l-165 59q36 141 149.5 217t271.5 76q123 0 221 -53.5t144 -153.5q54 98 151 152.5t218 54.5q205 0 327.5 -137t122.5 -379q0 -49 -6 -90h-735q15 -151 92.5 -238.5t202.5 -87.5 q87 0 148.5 41.5t105.5 132.5l168 -59q-59 -133 -168.5 -200.5t-253.5 -67.5q-130 0 -232 61.5t-155 169.5q-121 -231 -420 -231q-168 0 -265.5 85.5t-97.5 227.5zM279 293q0 -70 52 -113t140 -43q144 0 230.5 81.5t86.5 227.5v13h-258q-251 0 -251 -166zM977 606h563 q-10 145 -83 225t-191 80q-119 0 -194.5 -81t-94.5 -224z" />
<glyph unicode="&#xe7;" horiz-adv-x="1128" d="M92 522q0 234 137 388.5t365 154.5q160 0 276 -79t166 -236l-176 -64q-76 215 -266 215q-143 0 -230.5 -104t-87.5 -275t87.5 -275t230.5 -104q194 0 276 215l177 -63q-46 -141 -153.5 -220.5t-248.5 -92.5l-24 -74h12q89 0 147 -48t58 -134q0 -88 -66 -142.5t-186 -54.5 q-136 0 -228 70l68 106q74 -53 160 -53q48 0 78 21t30 57q0 38 -26.5 56.5t-69.5 18.5q-36 0 -80 -12l-31 45l50 144q-135 14 -237 88.5t-155 191.5t-53 260z" />
<glyph unicode="&#xe8;" horiz-adv-x="1146" d="M92 522q0 153 59.5 275.5t174 195t266.5 72.5q209 0 336 -137.5t127 -378.5q0 -49 -6 -90h-768q14 -150 98 -238t215 -88q182 0 268 174l164 -59q-55 -132 -166 -200t-266 -68q-228 0 -365 154t-137 388zM283 606h596q-12 144 -89.5 224.5t-197.5 80.5 q-127 0 -208.5 -81.5t-100.5 -223.5zM293 1454h254l125 -266h-170z" />
<glyph unicode="&#xe9;" horiz-adv-x="1146" d="M92 522q0 153 59.5 275.5t174 195t266.5 72.5q209 0 336 -137.5t127 -378.5q0 -49 -6 -90h-768q14 -150 98 -238t215 -88q182 0 268 174l164 -59q-55 -132 -166 -200t-266 -68q-228 0 -365 154t-137 388zM283 606h596q-12 144 -89.5 224.5t-197.5 80.5 q-127 0 -208.5 -81.5t-100.5 -223.5zM508 1188l125 266h254l-209 -266h-170z" />
<glyph unicode="&#xea;" horiz-adv-x="1146" d="M92 522q0 153 59.5 275.5t174 195t266.5 72.5q209 0 336 -137.5t127 -378.5q0 -49 -6 -90h-768q14 -150 98 -238t215 -88q182 0 268 174l164 -59q-55 -132 -166 -200t-266 -68q-228 0 -365 154t-137 388zM266 1188l230 266h186l229 -266h-213l-112 153l-117 -153h-203z M283 606h596q-12 144 -89.5 224.5t-197.5 80.5q-127 0 -208.5 -81.5t-100.5 -223.5z" />
<glyph unicode="&#xeb;" horiz-adv-x="1146" d="M92 522q0 153 59.5 275.5t174 195t266.5 72.5q209 0 336 -137.5t127 -378.5q0 -49 -6 -90h-768q14 -150 98 -238t215 -88q182 0 268 174l164 -59q-55 -132 -166 -200t-266 -68q-228 0 -365 154t-137 388zM279 1321q0 52 38.5 87.5t92.5 35.5q53 0 89 -35.5t36 -87.5 t-36 -87.5t-89 -35.5q-54 0 -92.5 35.5t-38.5 87.5zM283 606h596q-12 144 -89.5 224.5t-197.5 80.5q-127 0 -208.5 -81.5t-100.5 -223.5zM645 1321q0 52 38.5 87.5t92.5 35.5q53 0 89 -35.5t36 -87.5t-36 -87.5t-89 -35.5q-54 0 -92.5 35.5t-38.5 87.5z" />
<glyph unicode="&#xec;" horiz-adv-x="471" d="M-61 1454h254l124 -266h-170zM143 0v1044h185v-1044h-185z" />
<glyph unicode="&#xed;" horiz-adv-x="471" d="M143 0v1044h185v-1044h-185zM154 1188l125 266h253l-208 -266h-170z" />
<glyph unicode="&#xee;" horiz-adv-x="471" d="M-88 1188l229 266h187l229 -266h-213l-113 153l-116 -153h-203zM143 0v1044h185v-1044h-185z" />
<glyph unicode="&#xef;" horiz-adv-x="471" d="M-37 1321q0 53 32.5 88t84.5 35t85.5 -35t33.5 -88t-33.5 -88t-85.5 -35t-84.5 35t-32.5 88zM143 0v1044h185v-1044h-185zM270 1321q0 53 32.5 88t84.5 35t85.5 -35t33.5 -88t-33.5 -88t-85.5 -35t-84.5 35t-32.5 88z" />
<glyph unicode="&#xf0;" horiz-adv-x="1138" d="M92 475q0 219 123 358.5t305 139.5q87 0 145 -22.5t119 -78.5l17 11q-61 152 -277 276l-205 -127l-83 92l159 101q-59 26 -194 69l108 140q145 -45 256 -103l164 103l82 -95l-127 -79q363 -255 363 -736q0 -114 -29.5 -211.5t-87.5 -172.5t-150.5 -117.5t-210.5 -42.5 q-141 0 -251 67t-168 179.5t-58 248.5zM276 475q0 -148 78 -240t215 -92t215 92t78 240q0 149 -78 241.5t-215 92.5t-215 -93t-78 -241z" />
<glyph unicode="&#xf1;" horiz-adv-x="1208" d="M133 1044h174l21 -174h14q55 93 146.5 144t199.5 51q184 0 285.5 -113t101.5 -338v-614h-184v604q0 147 -65 222t-187 75q-137 0 -224 -94.5t-87 -233.5v-573h-185v487q0 371 -10 557zM303 1178v59q0 118 49 172.5t117 54.5q42 0 83 -21t67.5 -45.5t56.5 -45.5t53 -21 q59 0 59 133h130v-63q0 -64 -14.5 -109.5t-39.5 -69t-52.5 -34t-59.5 -10.5q-43 0 -84 21t-67.5 45.5t-56 45.5t-52.5 21q-60 0 -60 -133h-129z" />
<glyph unicode="&#xf2;" horiz-adv-x="1187" d="M92 522q0 234 137 388.5t365 154.5t365 -154.5t137 -388.5t-137 -388t-365 -154t-365 154t-137 388zM276 522q0 -171 87.5 -275t230.5 -104t230 104t87 275t-87 275t-230 104t-230.5 -104t-87.5 -275zM297 1454h254l125 -266h-170z" />
<glyph unicode="&#xf3;" horiz-adv-x="1187" d="M92 522q0 234 137 388.5t365 154.5t365 -154.5t137 -388.5t-137 -388t-365 -154t-365 154t-137 388zM276 522q0 -171 87.5 -275t230.5 -104t230 104t87 275t-87 275t-230 104t-230.5 -104t-87.5 -275zM512 1188l125 266h254l-209 -266h-170z" />
<glyph unicode="&#xf4;" horiz-adv-x="1187" d="M92 522q0 234 137 388.5t365 154.5t365 -154.5t137 -388.5t-137 -388t-365 -154t-365 154t-137 388zM270 1188l230 266h186l229 -266h-213l-112 153l-117 -153h-203zM276 522q0 -171 87.5 -275t230.5 -104t230 104t87 275t-87 275t-230 104t-230.5 -104t-87.5 -275z" />
<glyph unicode="&#xf5;" horiz-adv-x="1187" d="M92 522q0 234 137 388.5t365 154.5t365 -154.5t137 -388.5t-137 -388t-365 -154t-365 154t-137 388zM276 522q0 -171 87.5 -275t230.5 -104t230 104t87 275t-87 275t-230 104t-230.5 -104t-87.5 -275zM287 1178v59q0 118 49 172.5t117 54.5q42 0 83 -21t67.5 -45.5 t56.5 -45.5t53 -21q59 0 59 133h129v-63q0 -64 -14.5 -109.5t-39.5 -69t-52.5 -34t-59.5 -10.5q-43 0 -84 21t-67.5 45.5t-56 45.5t-52.5 21q-59 0 -59 -133h-129z" />
<glyph unicode="&#xf6;" horiz-adv-x="1187" d="M92 522q0 234 137 388.5t365 154.5t365 -154.5t137 -388.5t-137 -388t-365 -154t-365 154t-137 388zM276 522q0 -171 87.5 -275t230.5 -104t230 104t87 275t-87 275t-230 104t-230.5 -104t-87.5 -275zM283 1321q0 52 38.5 87.5t92.5 35.5q53 0 89 -35.5t36 -87.5 t-36 -87.5t-89 -35.5q-54 0 -92.5 35.5t-38.5 87.5zM649 1321q0 52 38.5 87.5t92.5 35.5q53 0 89 -35.5t36 -87.5t-36 -87.5t-89 -35.5q-54 0 -92.5 35.5t-38.5 87.5z" />
<glyph unicode="&#xf7;" horiz-adv-x="1034" d="M72 528v174h891v-174h-891zM385 270q0 54 38.5 90.5t94.5 36.5t94.5 -36.5t38.5 -90.5t-38.5 -90.5t-94.5 -36.5t-94.5 36.5t-38.5 90.5zM385 958q0 54 38.5 90.5t94.5 36.5t94.5 -36.5t38.5 -90.5t-38.5 -90.5t-94.5 -36.5t-94.5 36.5t-38.5 90.5z" />
<glyph unicode="&#xf8;" horiz-adv-x="1187" d="M92 522q0 234 137 388.5t365 154.5q121 0 211 -43l84 145l119 -57l-93 -158q88 -73 134.5 -184.5t46.5 -245.5q0 -234 -137 -388t-365 -154q-121 0 -211 43l-84 -146l-117 57l90 158q-87 73 -133.5 184.5t-46.5 245.5zM276 522q0 -171 86 -274l361 626q-59 27 -129 27 q-143 0 -230.5 -104t-87.5 -275zM465 170q59 -27 129 -27q143 0 230 104t87 275q0 169 -86 275z" />
<glyph unicode="&#xf9;" horiz-adv-x="1208" d="M133 430v614h184v-604q0 -147 65 -222t187 -75q137 0 224.5 94.5t87.5 233.5v573h184v-487q0 -371 10 -557h-174l-20 174h-15q-55 -93 -146.5 -143.5t-199.5 -50.5q-185 0 -286 112.5t-101 337.5zM303 1454h254l125 -266h-170z" />
<glyph unicode="&#xfa;" horiz-adv-x="1208" d="M133 430v614h184v-604q0 -147 65 -222t187 -75q137 0 224.5 94.5t87.5 233.5v573h184v-487q0 -371 10 -557h-174l-20 174h-15q-55 -93 -146.5 -143.5t-199.5 -50.5q-185 0 -286 112.5t-101 337.5zM518 1188l125 266h254l-209 -266h-170z" />
<glyph unicode="&#xfb;" horiz-adv-x="1208" d="M133 430v614h184v-604q0 -147 65 -222t187 -75q137 0 224.5 94.5t87.5 233.5v573h184v-487q0 -371 10 -557h-174l-20 174h-15q-55 -93 -146.5 -143.5t-199.5 -50.5q-185 0 -286 112.5t-101 337.5zM276 1188l230 266h186l230 -266h-213l-113 153l-117 -153h-203z" />
<glyph unicode="&#xfc;" horiz-adv-x="1208" d="M133 430v614h184v-604q0 -147 65 -222t187 -75q137 0 224.5 94.5t87.5 233.5v573h184v-487q0 -371 10 -557h-174l-20 174h-15q-55 -93 -146.5 -143.5t-199.5 -50.5q-185 0 -286 112.5t-101 337.5zM289 1321q0 52 38.5 87.5t92.5 35.5q53 0 89 -35.5t36 -87.5t-36 -87.5 t-89 -35.5q-54 0 -92.5 35.5t-38.5 87.5zM655 1321q0 52 38.5 87.5t92.5 35.5q53 0 89 -35.5t36 -87.5t-36 -87.5t-89 -35.5q-54 0 -92.5 35.5t-38.5 87.5z" />
<glyph unicode="&#xfd;" horiz-adv-x="1073" d="M35 1044h196l304 -845h10l301 845h192l-559 -1454h-192l157 392zM457 1188l125 266h254l-209 -266h-170z" />
<glyph unicode="&#xfe;" horiz-adv-x="1218" d="M143 -410v1844h185v-564h14q114 195 344 195q199 0 319.5 -149t120.5 -394t-120.5 -393.5t-319.5 -148.5q-230 0 -344 194h-14v-584h-185zM328 520q0 -172 83.5 -274.5t223.5 -102.5t223.5 102.5t83.5 274.5t-84 276.5t-223 104.5t-223 -104.5t-84 -276.5z" />
<glyph unicode="&#xff;" horiz-adv-x="1073" d="M35 1044h196l304 -845h10l301 845h192l-559 -1454h-192l157 392zM227 1321q0 52 38.5 87.5t92.5 35.5q53 0 89 -35.5t36 -87.5t-36 -87.5t-89 -35.5q-54 0 -92.5 35.5t-38.5 87.5zM594 1321q0 52 38.5 87.5t92.5 35.5q53 0 89 -35.5t36 -87.5t-36 -87.5t-89 -35.5 q-54 0 -92.5 35.5t-38.5 87.5z" />
<glyph unicode="&#x152;" horiz-adv-x="1925" d="M102 717q0 320 181.5 518.5t470.5 198.5h1058v-164h-675v-451h594v-164h-594v-491h675v-164h-1058q-289 0 -470.5 198.5t-181.5 518.5zM287 717q0 -258 126.5 -405.5t344.5 -147.5h194v1106h-194q-218 0 -344.5 -147.5t-126.5 -405.5z" />
<glyph unicode="&#x153;" horiz-adv-x="1910" d="M92 522q0 153 58.5 275.5t171.5 195t262 72.5q133 0 233 -57t162 -160q64 102 163 159.5t228 57.5q203 0 326 -137.5t123 -378.5q0 -43 -7 -90h-735q14 -151 91.5 -238.5t203.5 -87.5q87 0 148.5 41.5t105.5 132.5l168 -59q-59 -133 -168.5 -200.5t-253.5 -67.5 q-264 0 -395 217q-60 -103 -160 -160t-233 -57q-149 0 -262 72t-171.5 194.5t-58.5 275.5zM276 522q0 -171 85 -275t223 -104t222.5 104t84.5 275t-84.5 275t-222.5 104t-223 -104t-85 -275zM1079 606h563q-10 145 -83.5 225t-188.5 80q-120 0 -196 -81t-95 -224z" />
<glyph unicode="&#x178;" horiz-adv-x="1290" d="M41 1434h211l393 -703h10l387 703h207l-510 -877v-557h-184v555zM334 1710q0 52 38.5 87.5t92.5 35.5q53 0 89 -35.5t36 -87.5t-36 -87.5t-89 -35.5q-54 0 -92.5 35.5t-38.5 87.5zM700 1710q0 52 38.5 87.5t92.5 35.5q53 0 89 -35.5t36 -87.5t-36 -87.5t-89 -35.5 q-54 0 -92.5 35.5t-38.5 87.5z" />
<glyph unicode="&#x2c6;" horiz-adv-x="768" d="M61 1188l230 266h186l230 -266h-213l-113 153l-117 -153h-203z" />
<glyph unicode="&#x2dc;" horiz-adv-x="737" d="M61 1178v59q0 118 49 172.5t117 54.5q42 0 83 -21t67.5 -45.5t56.5 -45.5t53 -21q60 0 60 133h129v-63q0 -64 -14.5 -109.5t-39.5 -69t-52.5 -34t-59.5 -10.5q-43 0 -84 21t-67.5 45.5t-56 45.5t-52.5 21q-60 0 -60 -133h-129z" />
<glyph unicode="&#x2000;" horiz-adv-x="978" />
<glyph unicode="&#x2001;" horiz-adv-x="1956" />
<glyph unicode="&#x2002;" horiz-adv-x="978" />
<glyph unicode="&#x2003;" horiz-adv-x="1956" />
<glyph unicode="&#x2004;" horiz-adv-x="652" />
<glyph unicode="&#x2005;" horiz-adv-x="489" />
<glyph unicode="&#x2006;" horiz-adv-x="326" />
<glyph unicode="&#x2007;" horiz-adv-x="326" />
<glyph unicode="&#x2008;" horiz-adv-x="244" />
<glyph unicode="&#x2009;" horiz-adv-x="391" />
<glyph unicode="&#x200a;" horiz-adv-x="108" />
<glyph unicode="&#x2010;" horiz-adv-x="839" d="M82 492v163h676v-163h-676z" />
<glyph unicode="&#x2011;" horiz-adv-x="839" d="M82 492v163h676v-163h-676z" />
<glyph unicode="&#x2012;" horiz-adv-x="839" d="M82 492v163h676v-163h-676z" />
<glyph unicode="&#x2013;" horiz-adv-x="1044" d="M82 492v163h881v-163h-881z" />
<glyph unicode="&#x2014;" horiz-adv-x="1495" d="M82 492v163h1331v-163h-1331z" />
<glyph unicode="&#x2018;" horiz-adv-x="430" d="M82 1071q0 196 199 383l51 -41q-93 -114 -109 -223q55 -6 90 -41t35 -88q0 -55 -38 -92t-95 -37q-56 0 -94.5 36.5t-38.5 102.5z" />
<glyph unicode="&#x2019;" horiz-adv-x="430" d="M82 1325q0 55 38 92t95 37q56 0 94.5 -36.5t38.5 -102.5q0 -197 -198 -383l-52 41q93 114 109 223q-55 6 -90 41t-35 88z" />
<glyph unicode="&#x201a;" horiz-adv-x="430" d="M82 106q0 56 38 93t95 37q56 0 94.5 -37t38.5 -103q0 -197 -198 -383l-52 41q93 114 109 223q-55 6 -90 41t-35 88z" />
<glyph unicode="&#x201c;" horiz-adv-x="788" d="M82 1071q0 196 199 383l51 -41q-93 -114 -109 -223q55 -6 90 -41t35 -88q0 -55 -38 -92t-95 -37q-56 0 -94.5 36.5t-38.5 102.5zM440 1071q0 196 199 383l51 -41q-91 -112 -108 -223q55 -6 90 -41t35 -88q0 -55 -38.5 -92t-95.5 -37q-56 0 -94.5 36.5t-38.5 102.5z" />
<glyph unicode="&#x201d;" horiz-adv-x="788" d="M82 1325q0 55 38 92t95 37q56 0 94.5 -36.5t38.5 -102.5q0 -197 -198 -383l-52 41q93 114 109 223q-55 6 -90 41t-35 88zM440 1325q0 55 38 92t95 37q56 0 95 -36.5t39 -102.5q0 -196 -199 -383l-51 41q91 112 108 223q-55 6 -90 41t-35 88z" />
<glyph unicode="&#x201e;" horiz-adv-x="788" d="M82 106q0 56 38 93t95 37q56 0 94.5 -37t38.5 -103q0 -197 -198 -383l-52 41q93 114 109 223q-55 6 -90 41t-35 88zM440 106q0 56 38 93t95 37q56 0 95 -37t39 -103q0 -196 -199 -383l-51 41q91 112 108 223q-55 6 -90 41t-35 88z" />
<glyph unicode="&#x2022;" horiz-adv-x="512" d="M82 543q0 73 50.5 120.5t123.5 47.5t123.5 -47.5t50.5 -120.5t-50.5 -120.5t-123.5 -47.5t-123.5 47.5t-50.5 120.5z" />
<glyph unicode="&#x2026;" horiz-adv-x="1259" d="M82 113q0 58 40.5 95.5t98.5 37.5t97.5 -37.5t39.5 -95.5t-39.5 -95.5t-97.5 -37.5t-98.5 37.5t-40.5 95.5zM492 113q0 58 40.5 95.5t98.5 37.5t97.5 -37.5t39.5 -95.5t-39.5 -95.5t-97.5 -37.5t-98.5 37.5t-40.5 95.5zM901 113q0 58 40.5 95.5t98.5 37.5t98 -37.5 t40 -95.5t-40 -95.5t-98 -37.5t-98.5 37.5t-40.5 95.5z" />
<glyph unicode="&#x202f;" horiz-adv-x="391" />
<glyph unicode="&#x2039;" horiz-adv-x="655" d="M47 532l311 338h226l-318 -338l318 -337h-226z" />
<glyph unicode="&#x203a;" horiz-adv-x="655" d="M72 195l317 337l-317 338h225l311 -338l-311 -337h-225z" />
<glyph unicode="&#x205f;" horiz-adv-x="489" />
<glyph unicode="&#x20ac;" horiz-adv-x="1536" d="M41 492v143h188q-4 54 -4 82t4 82h-188v143h209q57 236 222 374t394 138q201 0 352.5 -104t217.5 -314l-174 -63q-109 317 -396 317q-158 0 -270 -91t-158 -257h439v-143h-463q-4 -54 -4 -82t4 -82h463v-143h-439q46 -166 158 -257.5t270 -91.5q144 0 244.5 76.5 t159.5 241.5l174 -64q-69 -212 -221 -314.5t-357 -102.5q-229 0 -394 138t-222 374h-209z" />
<glyph unicode="&#x2122;" horiz-adv-x="1611" d="M61 1313v121h590v-121h-225v-596h-137v596h-228zM737 717v717h203l188 -570l189 570h203v-717h-136v555h-10l-184 -555h-129l-184 555h-11v-555h-129z" />
<glyph unicode="&#x25fc;" horiz-adv-x="1044" d="M0 0v1044h1044v-1044h-1044z" />
<glyph unicode="&#xfb01;" horiz-adv-x="1320" d="M61 891v153h205v105q0 141 83.5 223t221.5 82q139 0 242 -70l-59 -127q-72 43 -154 43q-64 0 -106.5 -40.5t-42.5 -122.5v-93h727v-1044h-185v891h-542v-891h-185v891h-205zM946 1321q0 57 40 95t99 38t98.5 -38t39.5 -95t-39.5 -95t-98.5 -38t-99 38t-40 95z" />
<glyph unicode="&#xfb03;" horiz-adv-x="2048" d="M61 891v153h205v101q0 141 88.5 225t231.5 84q137 0 252 -72l-64 -133q-76 51 -162 51q-69 0 -115 -42t-46 -125v-89h542v105q0 141 83.5 223t221.5 82q139 0 242 -70l-59 -127q-72 43 -154 43q-64 0 -106.5 -40.5t-42.5 -122.5v-93h727v-1044h-185v891h-542v-891h-185 v891h-542v-891h-185v891h-205zM1673 1321q0 57 40 95t99 38t98.5 -38t39.5 -95t-39.5 -95t-98.5 -38t-99 38t-40 95z" />
</font>
</defs>
</svg>
